Coordinates
version=1
nRows=28
nColumns=33
inDegrees=yes

Units are S.I. units (second, meters, Newtons, ...)
Angles are in degrees.

endheader
time	ground_thorax_rot_x	ground_thorax_rot_y	ground_thorax_rot_z	ground_thorax_tx	ground_thorax_ty	ground_thorax_tz	clav_prot_r	clav_elev_r	scapula_abduction_r	scapula_elevation_r	scapula_upward_rot_r	scapula_winging_r	shoulder_elv_r	plane_of_elev_r	axial_rot_r	elbow_flexion_r	pro_sup_r	wrist_flex_r	wrist_dev_r	clav_prot_l	clav_elev_l	scapula_abduction_l	scapula_elevation_l	scapula_upward_rot_l	scapula_winging_l	shoulder_elv_l	plane_of_elev_l	axial_rot_l	elbow_flexion_l	pro_sup_l	wrist_flex_l	wrist_dev_l	
8.6900	-33.995495	-18.637795	27.198127	-74.492461	807.696160	-39.940191	28.444572	-45.000000	38.436551	-45.000000	-45.000000	619.285258	-4966.887217	21.833503	180.000000	1448.207360	-159.834631	14.872130	14.164179	0.544790	30.991521	-30.234492	-45.000000	-45.000000	-3516.965616	630.633974	133.061277	-101.598768	709.800498	406.958838	13.320049	-17.585827	
8.7000	-34.120645	-18.569504	26.931415	-76.552199	809.388717	-40.018345	28.407999	-45.000000	38.417939	-45.000000	-45.000000	619.112186	-4966.843204	21.898682	180.000000	1448.202882	-160.517468	14.900256	14.239100	0.521005	31.033923	-30.287791	-45.000000	-45.000000	-3516.832489	630.712231	133.021590	-101.429813	709.795839	406.661480	13.408218	-17.602818	
8.7100	-34.249724	-18.500170	26.668626	-78.547451	811.079236	-40.134691	28.370333	-45.000000	38.396688	-45.000000	-45.000000	618.946819	-4966.800209	21.963448	180.000000	1448.204913	-161.235669	14.925680	14.314112	0.503184	31.078082	-30.348070	-45.000000	-45.000000	-3516.694200	630.791780	132.982108	-101.267081	709.787620	406.304818	13.497632	-17.610741	
8.7200	-34.373968	-18.432931	26.416758	-80.474181	812.768279	-40.289360	28.334142	-45.000000	38.376677	-45.000000	-45.000000	618.782525	-4966.754699	22.026650	180.000000	1448.200782	-161.981535	14.951839	14.386770	0.489964	31.122126	-30.407346	-45.000000	-45.000000	-3516.560819	630.871638	132.944374	-101.113981	709.778737	405.876386	13.585592	-17.610829	
8.7300	-34.499744	-18.366057	26.166519	-82.327981	814.457070	-40.480526	28.298023	-45.000000	38.352360	-45.000000	-45.000000	618.625773	-4966.711003	22.093089	180.000000	1448.198448	-162.740268	14.981343	14.459629	0.481199	31.167395	-30.475434	-45.000000	-45.000000	-3516.417651	630.953600	132.904546	-100.964646	709.762410	405.374102	13.675371	-17.607999	
8.7400	-34.615443	-18.301713	25.928199	-84.104657	816.147254	-40.704669	28.264635	-45.000000	38.332668	-45.000000	-45.000000	618.469674	-4966.664076	22.157452	180.000000	1448.184523	-163.506601	15.014850	14.528789	0.474590	31.212668	-30.539254	-45.000000	-45.000000	-3516.282721	631.036556	132.867344	-100.827156	709.744208	404.799314	13.760786	-17.603342	
8.7500	-34.729948	-18.236434	25.691819	-85.800746	817.840475	-40.957207	28.230739	-45.000000	38.310390	-45.000000	-45.000000	618.323489	-4966.619450	22.222913	180.000000	1448.170901	-164.267878	15.053420	14.596781	0.471125	31.259947	-30.610036	-45.000000	-45.000000	-3516.142340	631.122495	132.827833	-100.692941	709.719082	404.168295	13.844001	-17.602904	
8.7600	-34.831726	-18.172886	25.467259	-87.413841	819.537849	-41.233153	28.197270	-45.000000	38.294210	-45.000000	-45.000000	618.178819	-4966.573183	22.285083	180.000000	1448.144437	-165.022294	15.096510	14.660232	0.468124	31.307024	-30.674099	-45.000000	-45.000000	-3516.014640	631.208051	132.790638	-100.571220	709.694407	403.500180	13.919679	-17.607747	
8.7700	-34.928377	-18.107436	25.245046	-88.942738	821.239527	-41.527708	28.161405	-45.000000	38.278207	-45.000000	-45.000000	618.042640	-4966.529909	22.346250	180.000000	1448.115005	-165.761177	15.144719	14.721618	0.467012	31.356505	-30.741658	-45.000000	-45.000000	-3515.886991	631.293176	132.750838	-100.455590	709.668315	402.824605	13.990524	-17.623243	
8.7800	-35.014019	-18.043026	25.031772	-90.387020	822.944210	-41.836434	28.123621	-45.000000	38.265529	-45.000000	-45.000000	617.910652	-4966.486442	22.406496	180.000000	1448.076191	-166.481514	15.197059	14.778486	0.465899	31.404712	-30.804803	-45.000000	-45.000000	-3515.767917	631.375141	132.711393	-100.350139	709.646299	402.169078	14.054355	-17.650560	
8.7900	-35.094009	-17.977844	24.822425	-91.746682	824.648990	-42.155174	28.081685	-45.000000	38.251135	-45.000000	-45.000000	617.785887	-4966.445496	22.468042	180.000000	1448.033729	-167.175662	15.254338	14.832667	0.465732	31.452777	-30.871637	-45.000000	-45.000000	-3515.646652	631.453300	132.668763	-100.246211	709.627852	401.561096	14.114740	-17.693486	
8.8000	-35.165318	-17.914695	24.619535	-93.021630	826.349373	-42.479796	28.036585	-45.000000	38.237937	-45.000000	-45.000000	617.665665	-4966.406610	22.531910	180.000000	1447.984596	-167.839465	15.315692	14.883322	0.464540	31.498791	-30.937699	-45.000000	-45.000000	-3515.526627	631.526870	132.625947	-100.143713	709.614475	401.017908	14.172336	-17.752008	
8.8100	-35.227652	-17.852369	24.422749	-94.211542	828.039652	-42.806033	27.988417	-45.000000	38.228172	-45.000000	-45.000000	617.548719	-4966.371843	22.595701	180.000000	1447.929206	-168.468205	15.381283	14.930852	0.461921	31.543935	-31.005760	-45.000000	-45.000000	-3515.407288	631.596462	132.582273	-100.040084	709.606357	400.548730	14.228358	-17.826545	
8.8200	-35.281105	-17.792923	24.233314	-95.315853	829.713196	-43.129450	27.939409	-45.000000	38.222590	-45.000000	-45.000000	617.435621	-4966.341932	22.659841	180.000000	1447.867822	-169.057946	15.450670	14.974051	0.457224	31.588105	-31.073716	-45.000000	-45.000000	-3515.290879	631.662581	132.538554	-99.934968	709.602694	400.154199	14.282376	-17.916366	
8.8300	-35.327291	-17.734921	24.048626	-96.333930	831.362521	-43.445587	27.889160	-45.000000	38.222921	-45.000000	-45.000000	617.324520	-4966.321161	22.725299	180.000000	1447.800154	-169.605437	15.524987	15.014034	0.450285	31.629721	-31.144279	-45.000000	-45.000000	-3515.174641	631.724574	132.492080	-99.825714	709.603105	399.829739	14.335807	-18.023483	
8.8400	-35.366612	-17.680015	23.869572	-97.265801	832.979633	-43.750217	27.837131	-45.000000	38.230280	-45.000000	-45.000000	617.215857	-4966.308042	22.790344	180.000000	1447.725840	-170.108310	15.604117	15.049504	0.441661	31.670414	-31.214707	-45.000000	-45.000000	-3515.061761	631.781854	132.445752	-99.712173	709.605552	399.568779	14.386795	-18.145731	
8.8500	-35.399839	-17.625252	23.694876	-98.112727	834.556143	-44.039588	27.783676	-45.000000	38.245484	-45.000000	-45.000000	617.107077	-4966.303936	22.855478	180.000000	1447.643606	-170.566021	15.690182	15.080664	0.430110	31.706805	-31.287552	-45.000000	-45.000000	-3514.950277	631.834410	132.396403	-99.593605	709.608697	399.364703	14.436301	-18.284316	
8.8600	-35.423620	-17.575182	23.533314	-98.877519	836.083018	-44.310529	27.727323	-45.000000	38.262833	-45.000000	-45.000000	617.000618	-4966.299078	22.916223	180.000000	1447.554570	-170.978232	15.781635	15.103508	0.417969	31.745564	-31.357200	-45.000000	-45.000000	-3514.851031	631.885005	132.351341	-99.471345	709.611119	399.213502	14.479893	-18.432486	
8.8700	-35.438838	-17.527992	23.384173	-99.564629	837.550582	-44.560558	27.672525	-45.000000	38.281845	-45.000000	-45.000000	616.895998	-4966.293850	22.974826	180.000000	1447.463200	-171.346964	15.878920	15.118476	0.401065	31.779494	-31.423905	-45.000000	-45.000000	-3514.758920	631.932702	132.304620	-99.346281	709.613413	399.109688	14.520208	-18.590488	
8.8800	-35.436939	-17.492261	23.261677	-100.179936	838.948549	-44.788045	27.615304	-45.000000	38.299712	-45.000000	-45.000000	616.797565	-4966.276632	23.020401	180.000000	1447.369668	-171.674596	15.977182	15.120246	0.384617	31.820714	-31.474402	-45.000000	-45.000000	-3514.696756	631.979027	132.272469	-99.223337	709.617989	399.047612	14.549284	-18.743886	
8.8900	-35.425915	-17.468018	23.157360	-100.730335	840.266811	-44.992510	27.562678	-45.000000	38.311933	-45.000000	-45.000000	616.708357	-4966.252462	23.061750	180.000000	1447.281491	-171.963128	16.077267	15.110980	0.362344	31.854451	-31.511112	-45.000000	-45.000000	-3514.648766	632.023168	132.244911	-99.103258	709.622807	399.020288	14.572713	-18.891545	
8.9000	-35.405256	-17.455390	23.073096	-101.222890	841.495731	-45.174896	27.509652	-45.000000	38.321400	-45.000000	-45.000000	616.625718	-4966.222341	23.095910	180.000000	1447.196324	-172.211963	16.180006	15.092324	0.339400	31.890869	-31.532688	-45.000000	-45.000000	-3514.620907	632.064117	132.227691	-98.982841	709.627837	399.019011	14.592130	-19.027092	
8.9100	-35.385624	-17.448833	22.996231	-101.664096	842.627037	-45.337821	27.462132	-45.000000	38.323142	-45.000000	-45.000000	616.553129	-4966.193405	23.131688	180.000000	1447.120878	-172.417543	16.287915	15.067231	0.310454	31.912138	-31.546673	-45.000000	-45.000000	-3514.592019	632.100736	132.205316	-98.857922	709.631231	399.034693	14.613749	-19.149358	
8.9200	-35.365820	-17.444305	22.928275	-102.059138	843.654396	-45.485594	27.413969	-45.000000	38.326598	-45.000000	-45.000000	616.483447	-4966.171947	23.163288	180.000000	1447.050788	-172.574429	16.402267	15.040055	0.281637	31.934153	-31.553069	-45.000000	-45.000000	-3514.569542	632.131294	132.185363	-98.723814	709.632480	399.057445	14.641525	-19.255987	
8.9300	-35.347617	-17.441505	22.869457	-102.411520	844.574501	-45.624001	27.369643	-45.000000	38.325470	-45.000000	-45.000000	616.421705	-4966.151324	23.191961	180.000000	1446.983372	-172.679212	16.523692	15.006094	0.249587	31.941572	-31.553783	-45.000000	-45.000000	-3514.550372	632.158140	132.159776	-98.583793	709.632663	399.079878	14.671720	-19.337135	
8.9400	-35.332668	-17.435818	22.816479	-102.722522	845.386778	-45.759663	27.328765	-45.000000	38.327556	-45.000000	-45.000000	616.358008	-4966.139917	23.219421	180.000000	1446.915739	-172.725240	16.653820	14.973377	0.218452	31.952792	-31.553171	-45.000000	-45.000000	-3514.531967	632.179969	132.130620	-98.432451	709.628992	399.095344	14.715378	-19.404330	
8.9500	-35.314013	-17.432996	22.778006	-102.991146	846.093263	-45.899204	27.290677	-45.000000	38.325557	-45.000000	-45.000000	616.301974	-4966.123445	23.237043	180.000000	1446.842715	-172.710409	16.790380	14.930756	0.188207	31.953530	-31.544804	-45.000000	-45.000000	-3514.525474	632.197803	132.100666	-98.277438	709.627645	399.102595	14.756337	-19.439593	
8.9600	-35.299268	-17.426700	22.744924	-103.214629	846.699021	-46.048726	27.261123	-45.000000	38.324018	-45.000000	-45.000000	616.243449	-4966.115551	23.257693	180.000000	1446.773572	-172.627385	16.930252	14.893325	0.158481	31.962924	-31.533439	-45.000000	-45.000000	-3514.516544	632.211039	132.066344	-98.112622	709.622993	399.101243	14.815220	-19.472914	
